<?xml version="1.0" standalone="no"?>
<!DOCTYPE svg PUBLIC "-//W3C//DTD SVG 20010904//EN"
 "http://www.w3.org/TR/2001/REC-SVG-20010904/DTD/svg10.dtd">
<svg version="1.0" xmlns="http://www.w3.org/2000/svg"
 width="1259.000000pt" height="353.000000pt" viewBox="0 0 1259.000000 353.000000"
 preserveAspectRatio="xMidYMid meet">

<g transform="translate(0.000000,353.000000) scale(0.100000,-0.100000)"
fill="#009900" stroke="none">
<path d="M1240 3284 c-168 -97 -480 -277 -695 -402 -214 -124 -399 -230 -410
-236 -60 -33 -55 43 -55 -891 l0 -852 23 -20 c12 -11 60 -42 107 -68 47 -26
179 -103 295 -170 116 -67 318 -184 450 -260 132 -76 321 -185 419 -242 99
-56 186 -103 193 -103 14 0 169 87 648 365 154 90 296 172 315 182 33 19 274
158 438 253 40 23 77 50 82 60 6 12 10 327 10 858 l0 839 -22 20 c-19 17 -272
167 -443 263 -22 12 -155 89 -295 170 -140 81 -271 156 -290 167 -131 74 -378
218 -395 229 -11 8 -31 14 -45 14 -15 0 -152 -73 -330 -176z m-228 -684 c85
-26 120 -54 229 -185 51 -60 169 -202 263 -314 94 -112 185 -220 201 -241 17
-21 95 -116 175 -211 l145 -173 5 500 c5 495 5 499 28 541 80 152 304 129 360
-36 17 -49 15 -1402 -2 -1449 -31 -88 -122 -137 -240 -130 -91 6 -163 38 -222
100 -37 38 -212 247 -708 843 -87 105 -161 193 -165 197 -3 4 -6 -222 -6 -502
l0 -508 -30 -44 c-41 -58 -96 -88 -162 -88 -87 0 -144 34 -184 112 -18 36 -19
68 -19 744 0 788 -4 745 70 807 72 60 152 71 262 37z"/>
<path d="M3959 2606 c-23 -12 -57 -38 -73 -59 l-31 -39 0 -768 0 -768 31 -39
c39 -49 105 -82 159 -78 54 4 95 15 95 27 0 5 4 7 9 4 10 -7 33 18 26 27 -3 4
-2 5 1 2 11 -8 36 25 38 49 0 13 4 22 7 20 16 -10 19 72 19 559 0 284 4 517 8
517 5 0 33 -28 62 -62 29 -35 57 -62 61 -60 5 1 8 -2 7 -7 -5 -15 130 -178
144 -174 4 2 7 -1 5 -6 -2 -8 135 -180 239 -300 17 -20 68 -81 114 -136 46
-55 88 -98 94 -97 6 2 8 0 4 -3 -6 -6 43 -77 72 -105 3 -3 36 -41 73 -86 37
-44 79 -89 94 -100 42 -30 103 -56 118 -50 8 3 15 0 17 -6 5 -15 113 -17 161
-3 20 6 46 19 57 28 11 9 25 17 30 17 29 0 67 136 47 174 -5 10 -5 16 0 13 9
-6 8 147 -1 162 -4 5 -3 12 1 14 10 6 9 149 0 164 -4 6 -3 14 2 18 10 6 7 37
-5 57 -4 6 -3 9 2 5 5 -3 9 65 9 163 0 98 -4 166 -9 162 -5 -3 -5 1 0 9 11 19
12 119 0 112 -5 -4 -6 0 0 8 11 19 12 199 0 192 -5 -4 -6 0 -1 8 12 19 13 99
1 92 -5 -4 -6 -1 0 8 12 19 12 30 1 53 -5 10 -5 16 0 13 4 -3 8 26 8 63 0 37
-3 67 -6 65 -3 -2 -4 8 -1 23 2 19 -4 36 -22 57 -14 17 -26 33 -26 37 0 3 -19
15 -42 26 -80 38 -182 22 -236 -35 -52 -56 -52 -56 -52 -619 0 -287 -4 -525
-8 -528 -11 -7 -23 3 -57 49 -16 22 -39 51 -50 64 -28 34 -101 119 -139 162
-17 20 -47 55 -66 79 -55 68 -104 125 -112 128 -5 2 -8 8 -8 13 0 10 -180 223
-212 252 -11 9 -17 17 -13 17 3 0 -22 33 -57 73 -79 92 -131 156 -141 174 -5
7 -13 10 -19 7 -6 -4 -8 -3 -5 3 7 11 -84 110 -126 136 -15 10 -32 15 -37 12
-6 -3 -10 -2 -10 2 0 16 -84 34 -146 32 -39 -1 -77 -10 -105 -23z"/>
<path d="M8165 2613 c-16 -9 -38 -25 -49 -37 -42 -48 -46 -74 -46 -341 l0
-255 164 0 c155 0 164 1 169 20 3 11 1 23 -4 26 -6 4 -6 11 1 19 8 10 8 15 0
20 -8 5 -8 10 0 20 8 10 8 15 0 20 -8 5 -8 10 0 20 8 10 8 15 0 20 -8 5 -8 10
0 20 8 10 8 15 0 20 -8 5 -8 10 0 20 8 10 8 15 0 20 -8 5 -8 10 0 20 8 10 8
15 0 20 -8 5 -8 10 0 20 8 10 8 15 0 20 -8 5 -8 10 0 20 8 10 8 15 0 20 -8 5
-8 10 0 20 8 10 8 15 0 20 -8 5 -8 10 0 20 8 10 8 15 0 20 -8 5 -8 10 0 20 7
9 8 15 1 19 -6 4 -8 13 -4 21 9 25 -26 84 -68 114 -46 34 -115 39 -164 14z"/>
<path d="M8805 2613 c-44 -23 -65 -43 -86 -85 -18 -36 -19 -71 -19 -783 0
-731 0 -747 20 -786 13 -24 25 -37 32 -33 6 4 8 3 5 -3 -16 -25 94 -70 163
-68 102 4 180 33 243 91 22 21 112 128 110 131 -2 1 16 21 39 43 23 22 38 40
33 40 -4 0 1 8 11 17 17 15 130 148 152 178 4 6 38 46 75 90 107 125 121 142
142 171 11 15 33 40 48 56 16 15 26 28 22 28 -3 0 9 16 27 34 18 19 38 41 43
48 6 7 39 46 74 86 34 39 60 72 57 72 -4 0 9 16 29 35 19 20 42 47 51 60 9 14
24 25 33 25 15 0 16 -43 13 -507 -4 -580 -3 -592 59 -648 22 -20 46 -34 52
-32 7 2 17 -2 24 -8 14 -15 95 -12 135 4 35 13 89 61 82 72 -3 5 -1 9 5 9 24
0 28 130 25 795 -3 848 -1 768 -16 759 -7 -4 -8 -3 -4 5 10 16 -22 64 -36 55
-7 -4 -8 -3 -4 5 5 7 -11 20 -48 36 -64 28 -144 31 -221 7 -97 -30 -115 -45
-315 -286 -63 -76 -144 -173 -180 -216 -36 -43 -117 -139 -180 -215 -63 -76
-144 -173 -180 -215 -36 -43 -96 -116 -135 -163 -65 -80 -95 -101 -110 -77 -3
6 -3 10 2 10 4 0 8 227 8 505 0 278 -2 505 -6 505 -3 0 -4 14 -1 30 3 19 0 30
-7 30 -7 0 -10 4 -6 9 3 5 -5 17 -17 25 -12 9 -18 16 -13 16 6 0 -12 13 -39
29 -57 34 -141 40 -191 14z"/>
<path d="M10844 2616 c-38 -21 -82 -63 -98 -94 -20 -39 -21 -129 -1 -168 8
-16 143 -157 300 -314 157 -157 285 -290 285 -295 0 -6 -126 -137 -281 -290
-154 -154 -289 -297 -300 -317 -28 -55 -26 -138 6 -189 15 -23 30 -37 37 -33
7 4 8 3 4 -4 -7 -12 41 -49 51 -39 3 3 11 0 19 -8 28 -27 167 4 181 42 3 7 8
11 12 9 8 -4 90 82 83 89 -3 3 0 5 6 5 17 0 63 50 57 61 -3 5 0 6 8 4 7 -3 19
5 27 20 7 14 15 23 18 21 7 -8 52 37 52 52 0 9 3 13 6 9 8 -8 33 16 27 26 -2
4 0 7 6 7 14 0 60 47 53 54 -3 3 0 6 6 6 14 0 101 87 94 95 -3 3 0 5 6 5 14 0
62 47 62 61 0 6 4 8 9 5 5 -3 11 1 15 9 3 8 11 15 18 15 7 0 143 -130 303
-289 184 -184 303 -295 325 -304 49 -20 160 -10 160 14 0 5 3 8 8 7 19 -7 74
63 86 109 28 113 17 130 -313 458 -154 153 -281 285 -281 292 0 8 7 16 16 20
8 3 13 12 10 19 -3 8 0 11 8 8 7 -3 18 7 26 21 7 14 15 24 16 22 6 -6 349 338
346 346 -2 4 1 7 6 7 5 0 34 25 64 55 30 30 53 55 50 55 -3 0 4 8 16 18 11 10
24 31 28 48 4 16 10 34 15 39 18 23 -17 140 -46 151 -8 3 -15 12 -15 18 0 21
-82 54 -133 55 -49 0 -80 -11 -105 -39 -12 -13 -13 -13 -6 0 3 8 -124 -115
-284 -274 -159 -159 -295 -287 -301 -285 -6 2 -138 131 -293 286 -180 179
-296 286 -318 296 -43 17 -127 19 -156 3z"/>
<path d="M6334 2610 c-10 -5 -28 -25 -39 -46 -30 -59 -193 -360 -277 -514 -14
-25 -47 -85 -73 -135 -27 -49 -57 -107 -68 -127 -23 -43 -25 -38 61 -185 23
-41 42 -76 42 -78 0 -2 20 -39 45 -81 25 -41 45 -77 45 -79 0 -2 25 -47 55
-100 30 -54 55 -99 55 -101 0 -3 11 -21 23 -42 13 -20 45 -77 72 -127 65 -121
68 -126 83 -120 7 3 10 0 7 -5 -4 -6 172 -9 501 -7 495 2 507 2 518 22 6 11
13 22 16 25 9 9 34 65 32 73 -1 4 2 7 6 7 8 0 30 40 28 50 0 3 9 19 21 35 20
29 56 95 134 245 19 36 36 67 39 70 3 3 15 25 28 50 49 96 97 185 102 190 3 3
19 32 35 65 17 33 35 63 40 67 7 5 7 8 0 8 -5 0 -3 5 5 10 10 6 -195 9 -581 7
l-596 -2 -37 -29 c-102 -78 -81 -214 42 -267 40 -17 72 -19 343 -19 316 0 317
0 285 -45 -14 -20 -36 -59 -84 -145 -13 -25 -35 -60 -49 -77 l-24 -33 -303 0
c-276 0 -304 2 -318 18 -14 16 -31 46 -123 217 -18 33 -52 96 -76 140 -24 44
-50 92 -58 107 -8 15 -19 25 -24 21 -6 -3 -7 -1 -3 5 4 7 -1 26 -11 42 -15 27
-16 33 -4 53 30 47 82 143 88 160 3 9 10 17 15 17 5 0 6 5 3 10 -3 6 -2 10 3
10 9 0 25 37 23 53 -1 4 3 7 7 7 10 0 37 50 34 63 -1 4 2 7 8 7 6 0 10 5 10
11 0 6 7 17 15 26 8 8 13 19 10 24 -4 5 -2 9 3 9 5 0 15 14 22 30 7 17 26 49
41 70 l29 40 303 0 c166 0 308 -4 316 -9 8 -5 56 -78 106 -163 l91 -153 197
-3 c194 -2 197 -2 185 17 -7 11 -16 17 -22 14 -5 -3 -6 -1 -2 5 8 14 -28 74
-39 64 -5 -4 -5 -1 0 7 5 9 1 19 -11 28 -10 8 -17 15 -16 16 7 4 -21 57 -30
57 -5 0 -6 5 -3 10 3 6 0 13 -8 16 -7 2 -14 10 -14 17 0 7 -22 48 -50 92 -27
44 -52 88 -56 98 -4 11 -12 15 -18 11 -8 -4 -9 -3 -5 4 3 6 -14 43 -39 82 -25
38 -45 75 -45 80 0 6 -6 11 -12 12 -45 5 -1038 3 -1054 -2z"/>
<path d="M8070 1390 c0 -435 1 -441 56 -491 36 -32 70 -45 109 -44 41 2 85 15
85 26 0 5 4 8 9 6 20 -5 82 86 68 100 -3 3 -2 16 3 29 7 17 6 24 -3 24 -9 0
-8 3 1 9 8 4 14 12 14 16 0 4 -6 12 -14 16 -7 5 -8 9 -2 9 6 0 11 7 11 15 0 8
-5 15 -11 15 -6 0 -5 4 2 9 8 4 14 12 14 16 0 4 -6 12 -14 16 -7 5 -8 9 -2 9
6 0 11 7 11 15 0 8 -5 15 -11 15 -6 0 -5 4 2 9 8 4 14 12 14 16 0 4 -6 12 -14
16 -7 5 -8 9 -2 9 6 0 11 7 11 15 0 8 -5 15 -11 15 -6 0 -5 4 2 9 17 11 17 21
0 32 -7 5 -8 9 -2 9 6 0 11 7 11 15 0 8 -5 15 -11 15 -6 0 -5 4 2 9 8 4 14 12
14 16 0 4 -6 12 -14 16 -7 5 -8 9 -2 9 6 0 11 7 11 15 0 8 -5 15 -11 15 -6 0
-5 4 2 9 8 4 14 12 14 16 0 4 -6 12 -14 16 -7 5 -8 9 -2 9 6 0 11 7 11 15 0 8
-5 15 -11 15 -6 0 -5 4 2 9 17 11 17 21 0 32 -7 5 -8 9 -2 9 14 0 14 30 0 30
-6 0 -5 4 2 9 17 11 17 21 0 32 -7 5 -8 9 -2 9 6 0 11 7 11 15 0 8 -5 15 -11
15 -6 0 -5 4 2 9 8 4 14 12 14 16 0 4 -6 12 -14 16 -10 7 -10 9 0 9 8 0 10 5
5 13 -4 6 -6 20 -5 30 3 16 -10 17 -162 17 l-166 0 0 -400z"/>
</g>
</svg>
